#!OML:ASF F:\twosubjects\two\wednesday\Session 1\rory1.ASF
:FULLY-SPECIFIED
:DEGREES
146
root 4.98456 17.1852 -1.0695 174.775 -50.8085 -169.268
lowerback 7.54217 1.30154 -6.03169
upperback 3.09737 1.181 0.365064
thorax -1.14841 0.494802 3.66818
lowerneck 0.891404 -18.1691 -18.174
upperneck 8.6186 -28.4046 24.0813
head 8.7669 -13.9197 7.28985
rclavicle -5.32743e-014 5.725e-014
rhumerus 30.2308 -43.6315 -65.4348
rradius 24.7575
rwrist -38.9375
rhand 5.30044 -2.49111
rfingers 7.12502
rthumb 30.6565 -29.9575
lclavicle -5.32743e-014 5.725e-014
lhumerus -9.29726 5.1137 63.8331
lradius 24.404
lwrist 3.76718
lhand -25.0504 20.7464
lfingers 7.12502
lthumb 1.46288 50.7211
rfemur -32.7232 -3.81205 13.7124
rtibia 52.3361
rfoot -12.9422 -11.9841
rtoes 3.89845
lfemur -9.99909 7.4049 -29.2041
ltibia 50.3122
lfoot -15.1846 -9.14507
ltoes 11.926
147
root 4.83292 17.1908 -1.01628 174.548 -50.8008 -168.615
lowerback 7.68433 1.00961 -5.86202
upperback 3.12949 0.799022 0.535028
thorax -1.15294 0.303649 3.78207
lowerneck 0.527625 -18.2503 -18.4923
upperneck 8.73815 -28.5231 24.2188
head 8.97234 -13.9444 7.29977
rclavicle -2.46493e-014 -2.70347e-014
rhumerus 32.6472 -45.4899 -67.8982
rradius 23.7675
rwrist -36.549
rhand 5.35771 -2.64123
rfingers 7.12502
rthumb 30.7111 -30.0974
lclavicle -2.46493e-014 -2.70347e-014
lhumerus -8.67298 5.5059 63.6553
lradius 24.9492
lwrist 3.83687
lhand -25.4233 20.4049
lfingers 7.12502
lthumb 1.10277 50.3818
rfemur -33.5849 -5.35078 15.1021
rtibia 52.8988
rfoot -13.916 -12.2572
rtoes 6.49447
lfemur -9.59281 7.51564 -29.2527
ltibia 49.4258
lfoot -14.5504 -8.99936
ltoes 12.8872
148
root 4.67401 17.1954 -0.96799 174.948 -50.5605 -168.542
lowerback 7.54143 0.701552 -6.02819
upperback 3.11149 0.391287 0.595381
thorax -1.04845 0.0975913 3.97476
lowerneck 0.429112 -18.1468 -18.8397
upperneck 8.75006 -28.4025 24.4189
head 9.05776 -13.8854 7.4231
rclavicle -2.10712e-014 -3.97569e-014
rhumerus 35.1497 -47.0048 -70.6672
rradius 22.9336
rwrist -34.2037
rhand 4.99695 -2.58012
rfingers 7.12502
rthumb 30.3671 -30.1003
lclavicle -2.10712e-014 -3.97569e-014
lhumerus -9.64337 2.53443 63.0477
lradius 27.7524
lwrist 7.01066
lhand -25.8999 21.5979
lfingers 7.12502
lthumb 0.64242 51.5767
rfemur -34.6954 -6.88752 16.3725
rtibia 53.2687
rfoot -14.0245 -13.047
rtoes 4.45399
lfemur -9.33734 7.896 -29.6832
ltibia 48.519
lfoot -14.229 -8.88143
ltoes 13.402
149
root 4.50686 17.2146 -0.933041 175.455 -50.0436 -168.786
lowerback 7.40389 0.785544 -6.33382
upperback 3.08184 0.488073 0.447468
thorax -1.01405 0.144387 3.98528
lowerneck 1.27387 -18.1426 -18.9356
upperneck 8.02227 -28.5532 25.1794
head 8.86117 -14.0499 7.73269
rclavicle -7.55382e-014 -1.27222e-014
rhumerus 36.2128 -48.7426 -72.0234
rradius 22.448
rwrist -32.5468
rhand 4.63691 -2.10023
rfingers 7.12502
rthumb 30.0236 -29.6832
lclavicle -7.55382e-014 -1.27222e-014
lhumerus -8.81985 2.84349 62.8303
lradius 27.9229
lwrist 6.39112
lhand -26.1548 21.7973
lfingers 7.12502
lthumb 0.396196 51.7767
rfemur -35.5766 -8.37678 17.6985
rtibia 53.4304
rfoot -13.2423 -14.0025
rtoes -2.87664
lfemur -8.91225 8.70771 -30.2256
ltibia 47.6545
lfoot -14.1065 -8.39661
ltoes 11.6229
150
root 4.33381 17.2357 -0.902332 175.922 -49.4744 -168.854
lowerback 7.22032 1.05968 -6.47821
upperback 2.98924 0.851334 0.223665
thorax -1.04882 0.330116 3.80395
lowerneck 2.20114 -18.3428 -18.6511
upperneck 7.01021 -28.9788 26.0711
head 8.59258 -14.3615 7.98078
rclavicle -3.81667e-014 1.74931e-014
rhumerus 36.4 -50.5224 -72.3567
rradius 22.1003
rwrist -31.7254
rhand 4.27812 -1.84976
rfingers 7.12502
rthumb 29.6812 -29.4943
lclavicle -3.81667e-014 1.74931e-014
lhumerus -7.78659 2.73354 62.7241
lradius 28.1393
lwrist 5.98255
lhand -26.4544 21.9549
lfingers 7.12502
lthumb 0.10688 51.9347
rfemur -36.446 -9.7614 19.1145
rtibia 53.3973
rfoot -13.3509 -14.2765
rtoes -4.59858
lfemur -8.57897 9.46464 -30.6471
ltibia 46.754
lfoot -13.5242 -7.90605
ltoes 9.6204
151
root 4.15323 17.247 -0.857746 176.431 -49.0346 -168.468
lowerback 6.73992 1.08023 -6.10746
upperback 2.83392 0.942225 0.101806
thorax -0.947247 0.38394 3.46516
lowerneck 2.431 -18.5147 -18.3964
upperneck 6.57624 -29.2754 26.4983
head 8.52425 -14.538 8.03841
rclavicle -7.27552e-014 9.54166e-015
rhumerus 37.4448 -52.072 -73.4849
rradius 21.5906
rwrist -30.5885
rhand 3.51697 -1.99237
rfingers 7.12502
rthumb 28.9544 -29.764
lclavicle -7.27552e-014 9.54166e-015
lhumerus -7.69905 1.62222 62.3696
lradius 29.6808
lwrist 6.99478
lhand -26.6329 22.5009
lfingers 7.12502
lthumb -0.0655132 52.4806
rfemur -37.7392 -11.2656 20.8999
rtibia 53.2433
rfoot -13.6577 -14.5145
rtoes -4.27099
lfemur -8.73151 9.72208 -30.9295
ltibia 45.8484
lfoot -12.4197 -7.64341
ltoes 9.99968
152
root 3.97457 17.2799 -0.851399 176.326 -49.1043 -168.071
lowerback 6.77495 0.81573 -6.1227
upperback 2.86145 0.588665 0.147128
thorax -0.901365 0.20516 3.54807
lowerneck 2.31132 -18.5923 -18.3487
upperneck 6.72976 -29.439 26.5189
head 8.6311 -14.6026 7.98411
rclavicle 8.50798e-014 3.33958e-014
rhumerus 39.6209 -53.5574 -75.8484
rradius 20.9463
rwrist -28.654
rhand 3.04847 -1.81225
rfingers 7.12502
rthumb 28.5069 -29.6597
lclavicle 8.50798e-014 3.33958e-014
lhumerus -8.05881 1.10393 61.8759
lradius 31.2389
lwrist 7.92261
lhand -26.4378 22.3016
lfingers 7.12502
lthumb 0.122884 52.2813
rfemur -38.074 -13.0923 22.7776
rtibia 52.9907
rfoot -13.7099 -15.5858
rtoes -7.92672
lfemur -7.98525 9.74616 -30.8333
ltibia 44.8509
lfoot -11.1544 -7.91853
ltoes 10.7934
